<svg width="215" height="357" viewBox="0 0 215 357" fill="none" xmlns="http://www.w3.org/2000/svg">
<path d="M141.636 125.652C141.636 128.473 140.516 131.179 138.521 133.174C136.526 135.168 133.821 136.289 131 136.289C128.179 136.289 125.474 135.168 123.479 133.174C121.484 131.179 120.364 128.473 120.364 125.652C120.364 122.832 121.484 120.126 123.479 118.131C125.474 116.137 128.179 115.016 131 115.016C133.821 115.016 136.526 116.137 138.521 118.131C140.516 120.126 141.636 122.832 141.636 125.652ZM170 125.652C170 128.473 168.879 131.179 166.885 133.174C164.89 135.168 162.185 136.289 159.364 136.289C156.543 136.289 153.837 135.168 151.843 133.174C149.848 131.179 148.727 128.473 148.727 125.652C148.727 122.832 149.848 120.126 151.843 118.131C153.837 116.137 156.543 115.016 159.364 115.016C162.185 115.016 164.89 116.137 166.885 118.131C168.879 120.126 170 122.832 170 125.652ZM113.273 125.652C113.273 128.473 112.152 131.179 110.157 133.174C108.163 135.168 105.457 136.289 102.636 136.289C99.8154 136.289 97.11 135.168 95.1153 133.174C93.1206 131.179 92 128.473 92 125.652C92 122.832 93.1206 120.126 95.1153 118.131C97.11 116.137 99.8154 115.016 102.636 115.016C105.457 115.016 108.163 116.137 110.157 118.131C112.152 120.126 113.273 122.832 113.273 125.652Z" fill="#5FE18C"/>
<path d="M0 126.016C0 61.016 60.4999 0.0159912 128 0.0159912C145 -0.317342 185.4 4.4161 211 28.0161C211 28.0161 201.5 34.5161 194.5 45.0161C187.5 55.5161 186 69.016 186 69.016C168.167 53.3494 121.7 31.416 78.4998 69.016C69.6664 77.516 52.2533 99.0161 53.9998 130.016C55.9998 165.516 83.5004 200.016 128 203.516C132.667 203.516 143.7 203.016 150.5 201.016L145 234.016L186 181.016C186 181.016 190.5 197.516 197.5 206.516C204.5 215.516 214.5 222.516 214.5 222.516C214.5 222.516 155.833 311.849 128 356.016V262.016C97.5 262.016 0 236.016 0 126.016Z" fill="black"/>
</svg>
