<svg id="Layer_1" data-name="Layer 1" xmlns="http://www.w3.org/2000/svg" viewBox="0 0 395.48 509.16"><defs><style>.cls-1{fill:#050505;}.cls-2{fill:#291c1a;}.cls-3{fill:#845024;}.cls-4{fill:#f06e32;}.cls-5{fill:#dcdcdc;}.cls-6{fill:#48678a;}.cls-7{fill:#6a879f;}.cls-8{fill:#ce4a28;}</style></defs><path class="cls-1" d="M489,365.6c7.39-1.32,12.19,1.87,14.72,8.67,1.7,4.55,4.9,6,9.59,6.05,8.73.09,17.54-.2,25.65,4.24,9.61,5.26,16.3,13.38,18.43,23.65,3.14,15.06,11.53,23.1,26.21,26.43,8.78,2,17.17,5.74,25.76,8.66a8.33,8.33,0,0,0,1.95.2,25.67,25.67,0,0,0-1.53-21.08c-3.14-6.09.2-12,6.33-14.34a11.43,11.43,0,0,0,5.75-6c3.6-9.05,6.68-18.31,9.74-27.56.36-1.09-.57-2.61-.68-3.06-8.81.36-17.18,1-25.54,1-11.27,0-22.54-.55-33.81-.92a136.22,136.22,0,0,1-68.5-20.7c-12.45-7.76-24.84-16.12-35.52-26.07a87.6,87.6,0,0,1-23.88-37c-3.32-10.14-8.39-19.72-11.59-29.89a91.83,91.83,0,0,1-3.85-22.65c-.64-12.4-1.36-25,.06-37.25,1.31-11.26,5.77-22.11,8.17-33.29,3.2-14.88,11.62-27.12,19.65-39.41,4.62-7.09,11-13.2,17.21-19a258.45,258.45,0,0,1,23.43-19.53c14.18-10.43,30.78-15.4,47.67-19.17,11-2.45,22.22-4.71,33.45-5.62,10.21-.82,20.82-1,30.82.88,12.63,2.36,25.9,5.12,37,11.21,21,11.58,41.62,24.56,56.82,44,8.35,10.65,17.38,21,24,32.72,5.16,9.11,7.38,20,10.38,30.21,4.26,14.55,5.09,29.6,4.2,44.62a177.57,177.57,0,0,1-16,63.49q-2.15,4.72-4.28,9.44c-.25-1.28-1.07-2.79-.66-3.81,1.7-4.31,4.1-8.35,5.63-12.71,2.47-7.05,4.46-14.26,6.65-21.41l.46-2,.44-2,.52-2c.15-.67.3-1.34.46-2,1.44-9,2.66-18,4.38-26.85,2.25-11.68-6-19.49-10.14-28.82-.09-.2-.93-.06-1.42-.08v-1.16c.45-2.17,1.35-4.36,1.25-6.51-.22-5-.8-9.92-1.46-14.85-1.68-12.68-2.14-25.88-11.07-36.19C705,125.76,694,113.66,682.8,101.74c-3.51-3.73-8-6.51-12.38-10-2,6-10.07,10.65-24.13,14.91l-4.37,2.73,0,.07-2.1.14L597,94.62l-5.61-1.82L587,91.58l-7-1.4h-4.13c-.06-.34-.12-.68-.17-1-.83-6.57-1.89-13.11-2.41-19.7-.3-3.79-1.67-5-5.32-4.1-15.74,3.93-31.71,7.13-47.19,11.93-8.39,2.61-16.3,7.35-23.76,12.15-6.07,3.91-11.4,9.1-16.61,14.18-4.78,4.65-9,9.9-13.41,14.89l-3.11.93c-2.24,3.07-4.74,6-6.68,9.25-15.07,25.33-26.9,51.75-26.9,82l.7,2.82c-1.87,23.07,1.15,45.21,12.35,65.83,3.7,6.83,7.2,13.77,10.79,20.66.53.83,1.05,1.67,1.57,2.5a.45.45,0,0,1,.36.64l1.65,2.36,2.22,2.9,2.88,3.11,3.23,2.67,1.89,2.31,1,1.08-.07-.07,19.53,18.64,1.89-.27c-.08.55-.15,1.11,0,.18.21,1,.1.46,0-.05-.41-.19-.81-.4-1.21-.61q-5.08-7.9-10.16-15.8l.07-1.22c1.73-1.39,3.72-2.56,5.14-4.21,5.81-6.8,11.46-13.74,17.17-20.63l2.84-1.46c3.85,1.52,7.68,3.1,11.56,4.53q22.59,8.31,45.21,16.52l2,.74,3.14-.09c.1.42.21.85.31,1.27l11.61,38.54.05,2.93-25.87,6.71.19,1.57h80.54c-.16,4.49,2,6.17,6.43,5.81,2.05-.17,4.18.61,6.28,1-.32,1.29-.63,2.57-.94,3.85-10.77.2-14.72,3.33-16.63,12.93-.89,4.55-1.32,9.4-3.3,13.46-1.64,3.38-4.77,7.08-8.1,8.32s-5,2.58-4.54,5.68c.86,5.34,3,10.55,3.27,15.89A31.68,31.68,0,0,1,612.85,445c-.34.85-6.2.35-9-.79-15-6-29.78-12.49-44.65-18.8-.35-1-.7-1.95-1-2.93.08-1.72.74-3.66.17-5.12-4.2-10.76-7-22.7-18.1-28.84-5.09-2.83-11.08-4.45-16.87-5.51-6.17-1.14-12.57-1-18.87-1.38l-9-13.72Z" transform="translate(-380.47 -61.38)"/><path class="cls-2" d="M489,365.6l6.51,2.33-2.28,2-10.45.79,18.48,35.21,6.63-5.48.15.12,1.83,3.85.18.17c-6.28,6.33-12.89,12.36-18.74,19.06-7.8,8.92-13.32,10.14-23.64,4-1.56-.93-3-2.33-4.71-2.71-4.63-1-9.35-1.64-14-2.42,2.74-1.11,5.79-3.58,8.17-3,4.23.95,8.13,3.58,12,5.77,5.53,3.1,11,4.27,16.59.67a4.92,4.92,0,0,0-.15-1.38c-12.93-24.56-25.8-49.15-39-73.57-.8-1.49-4.48-2.56-6.38-2.08-3.46.87-6.61,3-9.85,4.7-12.1,6.27-24.22,12.51-36.27,18.89-4.85,2.57-6.46,6.61-4.06,11.73,3.17,6.77,6.48,13.48,9.86,20.14.44.87,1.73,2,2.54,1.9,9.58-.79,13.4,5.68,16.89,12.86.68,1.41,2.53,3.38,3.62,3.26a22.29,22.29,0,0,1,18.62,6.12l4.44-3.11c-1.87,14.09,9.29,30.88,23.42,33.95,6.94,1.5,14.26,1.28,21.4,1.84l0,1.17H465.24L464,464.52c3.38,3.55,6.31,7.72,10.22,10.52,7.78,5.58,17.08,4.58,26.06,4.6a43.51,43.51,0,0,1,5.53.69l-.11,1.66-19.8,2.83,13.19,12.61c-5.43.22-11.17,1.64-16.22.37-7.13-1.8-13.68-5.75-20.62-8.41a8.64,8.64,0,0,0-6.11.22c-4.78,2.22-20.64.93-24.38-2.51a4.42,4.42,0,0,1-1.09-2.18c-1.3-5.53-2.63-9.48-9.74-11.76-8.47-2.72-15.74-9.38-23.31-14.64a55,55,0,0,1-10.42-9c-5.11-6-3.84-14,2.82-21.56,4.48-5.09,6.94-11.26,4.85-17.56-3.06-9.19-7.66-17.85-11.3-26.87-1.72-4.26-.79-8.58,3.19-11.08,8.43-5.31,17-10.51,25.79-15.09,14.4-7.47,28.94-14.7,45.47-16.44,4.36-.45,7.7-.05,9.95,4.34,3.3,6.48,6.92,12.8,10.58,19.09,2.6,4.46,6,4.86,8.44,1.24ZM410.43,419c3.28,2.16,4.68,5.11,2,8.36-4.37,5.37-9.12,2.87-13.21.18-6.89,2.79-10.68,8.15-7.53,14.5,2.59,5.22,8.12,9,12.34,13.4l1.9-.93q.76-4.22,1.54-8.45c1.27-4.12,3.73-8.2,6.27-12.23,5.78-9.17,4.49-15.94-4.23-22.09-2.38-1.69-3.67-1.44-3.45,1.8-6-2-4.54,3.54-5.05,5.81-.46,2,.72,5.88,2.29,6.64C408.57,428.52,410.56,426.32,410.43,419Zm37.92,37.11-10.76-1.29c.84,3.44,1.48,6.05,2.11,8.67-2.4,2.63-5.5,4.92-7.05,8-2.56,5.06.27,11.48,5.48,14.48s10.37,1.58,14.51-2.5c7.07-7,5.91-15.54,5.05-23.82-.64-6.09-8.85-10.15-14.68-7.9ZM422,430.59c-5.31,2.41-6.06,5.71-3.2,14-4.5-1.32-6.59,2.42-7.8,5-3.23,7,.24,13.74,8.91,19.29,6,3.86,7.77,3,11-3.29,3.36-6.57,7.79-12.58,11.36-19.06a12.84,12.84,0,0,0,1.52-7.41c-.92-6.86-9.46-13.59-16.37-13.74C423.71,425.35,421.66,426.59,422,430.59Z" transform="translate(-380.47 -61.38)"/><path class="cls-1" d="M487,365.6c-2.41,3.62-5.84,3.22-8.44-1.24-3.66-6.29-7.28-12.61-10.58-19.09-2.25-4.39-5.59-4.79-9.95-4.34-16.53,1.74-31.07,9-45.47,16.44-8.83,4.58-17.36,9.78-25.79,15.09-4,2.5-4.91,6.82-3.19,11.08,3.64,9,8.24,17.68,11.3,26.87,2.09,6.3-.37,12.47-4.85,17.56-6.66,7.57-7.93,15.59-2.82,21.56a55,55,0,0,0,10.42,9c7.57,5.26,14.84,11.92,23.31,14.64,7.11,2.28,8.44,6.23,9.74,11.76a4.42,4.42,0,0,0,1.09,2.18c3.74,3.44,19.6,4.73,24.38,2.51a8.64,8.64,0,0,1,6.11-.22c6.94,2.66,13.49,6.61,20.62,8.41,5,1.27,10.79-.15,16.22-.36l4.86-.3c.33.36.65,1,1,1,10.52.13,21,.32,31.56.12,1.21,0,2.38-2.3,3.57-3.53l2.92-1.19,4.9,2.82c-4.61,6.48-4.63,7.82-.3,8.09,12.24.77,24.48,1.48,36.73,2,2.74.11,5.53-.76,7.74-1.1L589,499.56l14.9,1.29c9.53,4.93,19.81,4.68,30.08,4.15,5.47-.28,10.93-1.05,16.74-1.63-.83,4.83-1.75,8.92,4.24,9.19l9,4-2,2.45-2.48.47c-1.16.87-3.38,1.83-3.32,2.6.41,5.08.68,10.35,2.4,15,.61,1.67,5.13,1.9,7.85,2.82.28.09.47.45.7.68l-1.74,5.76c-5.55,1.06-12.73,14.91-9.88,19.45.48.77,2.69.85,4,.62,2-.37,4.59-2.41,5.89-1.74,5.8,3,11.22,1.92,16.82-.13.88-.33,2.09.23,3-.11,2-.78,3.92-1.86,5.87-2.82l2.59-2.4,1.6.3c0,.63-.11,1.27-.16,1.91.59,1,1.16,2.91,1.77,2.93,8.09.18,16.19.29,24.27-.08,1.72-.08,3.34-2.18,5-3.34,3-3.26,7-3.31,10.9-3.59l8.08,4c5.9.34,11.81.92,17.71.85,1.45,0,4.15-2.19,4.11-3.29-.39-11.14-1.24-22.25-2-33.37q1.5-6.09,3-12.19c2-3.09,8-4.53,4.22-10.06-2.34-5.18-5.95-10.18-6.76-15.59-1.28-8.67-.52-17.61-1-26.42-.35-6.45-.33-13.16-2.15-19.24-4.1-13.68-8.83-27.21-14.07-40.49-8.43-21.39-20.72-40.32-39.08-54.57-10.22-7.94-20-17.84-35.12-13.72l.06-2.52,8.73-10.41L694,314.84l4.71-2.45c1.65-.64,3.28-1.34,4.95-1.91,3.08-1.05,6.18-2,9.27-3l-17.89,25.66c13.31,9.89,27.31,20.25,37.77,34.48,13.91,18.91,20.73,40.91,28.65,62.71,7.08,19.48,5.87,38.89,6.73,58.56a19.52,19.52,0,0,0,5,11.26c3.72,4.11,3.44,7.77.76,11.5-4.75,6.6-7.4,12.91-4.33,21.48,1.75,4.88.37,10.89.39,16.38,0,3.84-.3,7.7.07,11.5.92,9.56,1.05,9.55-8.81,9.55q-53.49,0-107-.07c-2.34,0-4.67-1.1-7-1.68.84-1.82,1.72-3.63,2.52-5.46,2.63-6,7.44-12,7.37-18-.13-11.24-4.17-22.11-10.51-31.7a7.83,7.83,0,0,0-5.69-2.92c-27.26.12-54.51.89-81.76.56-8.32-.1-16.59-3.19-24.94-4.63a103.73,103.73,0,0,0-12.35-1.06c-14.12-.73-28.27-1-42.33-2.27a26.54,26.54,0,0,1-13.24-5.13c-4.61-3.58-9.39-3.19-14.45-3.78a126.49,126.49,0,0,1-20.4-4.12c-2-.58-3.2-3.8-4.84-5.75a65.31,65.31,0,0,0-6.08-6.87c-1.68-1.5-4.11-2.13-5.92-3.52-9.7-7.48-20.21-14.22-28.68-22.92-7.13-7.32-4.39-19.36,2.62-26.84,2.47-2.63,4.43-7.93,3.52-11.13-2.48-8.78-6.31-17.24-10.2-25.54-2.74-5.86-1.52-14.75,3.82-17.88,10.64-6.23,21.43-12.21,32.23-18.15a113.37,113.37,0,0,1,35.63-12.58c10.21-1.76,13.35-1.11,18.29,7.55a129.14,129.14,0,0,1,7.64,14.48C481,364.93,483.22,366.23,487,365.6ZM601.58,509.24l.17-.49H586.13v.49Zm-22.72,0v-.37H564.31v.37Z" transform="translate(-380.47 -61.38)"/><path class="cls-2" d="M712.94,307.46c-3.09,1-6.19,2-9.27,3-1.67.57-3.3,1.27-4.95,1.91a21.76,21.76,0,0,1,3.6-2.51,29.24,29.24,0,0,0,15.9-16.35c4.58-11,9.39-22,14.1-33-2.19,7.15-4.18,14.36-6.65,21.41-1.53,4.36-3.93,8.4-5.63,12.71-.41,1,.41,2.53.66,3.81l-1.69,2-4.14,5C714.23,306.15,713.59,306.81,712.94,307.46Z" transform="translate(-380.47 -61.38)"/><path class="cls-1" d="M714.87,305.5l4.14-5Z" transform="translate(-380.47 -61.38)"/><path class="cls-3" d="M543,493.57l-2.92,1.18q-12.62.88-25.25,1.76c-3.62.25-7.25.42-10.87.63l-4.86.3-13.19-12.62,19.8-2.83.11-1.66a43.51,43.51,0,0,0-5.53-.69c-9,0-18.28,1-26.06-4.6-3.91-2.8-6.84-7-10.22-10.52l1.26-2.19h25.55l0-1.17c-7.14-.56-14.46-.34-21.4-1.84-14.13-3.07-25.29-19.86-23.42-33.95l1.83-1.92,1.2-1-.08,0c4.69.78,9.41,1.39,14,2.42,1.69.38,3.15,1.78,4.71,2.71,10.32,6.14,15.84,4.92,23.64-4,5.85-6.7,12.46-12.73,18.74-19.06l2.79-1.92-1.15-1.06c-.61.94-1.21,1.88-1.82,2.81L508,400.56l1.17-1.84.33-.71-.67.38c-.33.68-.65,1.36-1,2.05l-6.63,5.48-18.48-35.21,10.45-.79c2,5.74,3.78,11.59,6.24,17.14.48,1.09,3.65,1,5.59,1.45,3.12-.27,6.25-.9,9.35-.74,6.52.32,13.5-.26,19.4,1.94,8.77,3.29,13.85,11.3,18,19.55,2.19,4.38,4.26,8.82,6.38,13.24.34,1,.69,1.95,1,2.93,1.58,7.31,8.25,8.54,13.64,10.77,11,4.54,22.34,8.24,33.43,12.58,7.67,3,15.16,6.46,22.73,9.72l.29.24-.34-.19c-.45-1.48-1.62-3.18-1.25-4.41,2-6.46,4.3-12.81,5.92-17.47,16.24,3,31.66,5.83,47,9,1,.22,2.45,3.32,2.16,4.78-3.34,16.85-10.32,31.9-23.13,43.71-4.56,4.2-9,8.21-16.44,7.65-13.06-1-26.22-.7-39.34-.94L589,499.56c-8.24-3.31-16.57-6.43-24.68-10-2.43-1.08-4.27-3.48-7.16-5.94Z" transform="translate(-380.47 -61.38)"/><path class="cls-4" d="M674,333.35c15.09-4.12,24.9,5.78,35.12,13.72,18.36,14.25,30.65,33.18,39.08,54.57,5.24,13.28,10,26.81,14.07,40.49,1.82,6.08,1.8,12.79,2.15,19.24.48,8.81-.28,17.75,1,26.42.81,5.41,4.42,10.41,6.76,15.59-2.69,7.3-10.1,5.81-15.44,8a34.82,34.82,0,0,1-13.27,2.6c-4.17-.06-8.42-1.56-12.44-3-19.72-7-39.78-6.11-60.14-3.78-4.76.54-11.71,5-15.24-3.09l16.15-14.73c5.49,3.59,5.32-2.57,7.17-4.51,6.77-7.07,9.65-16.21,10.42-25.57.45-5.59.85-9.74,6.74-12,3.22-1.21,3.57-3.69.5-6l1.26-12.69q.87-11.16,1.75-22.31,1.68-5.43,3.37-10.88l0,.08.9-1c4.75-3.68,4.52-8.38,2-13.81l-9.7,18.1-2.65-5.11a29.87,29.87,0,0,0-3.41,4c-2,3.42-3.3,7.23-5.58,10.39-9.13,12.62-16.42,14.79-30.81,9.85-4.8-1.65-9.69-3-14.54-4.53q2.7-19,5.41-38c.31-1.28.62-2.56.94-3.85.51-1.74,1.08-3.47,1.54-5.22C651.09,351.33,658.06,338.71,674,333.35Zm55.8,171.53c-14.16-5.48-28.94-4.31-43.63-4.13H674.48c.82,1.54,1.59,1.79,2.36,1.77,3.13-.07,6.25-.23,9.38-.35h5.59l1.31.05,36.76,2.93,4.75,1.62.28-1.06Z" transform="translate(-380.47 -61.38)"/><path class="cls-5" d="M566,313.82l-3.14.09-2-.74q-22.6-8.25-45.21-16.52c-3.88-1.43-7.71-3-11.56-4.53-3.13-12.55-6.33-25.08-9.36-37.65-2.39-10-4.57-20-6.84-29.94l8-8,3.06-2.94,2-2,11.88-11.06L533,184.92c1.91.44,3.87.73,5.73,1.35Q568.9,196.33,599,206.51l11.64,48c.15.68.3,1.35.44,2l.51,2,.48,2c.12.66.24,1.32.37,2,2.41,6.11-.67,9.83-5.13,13.65-10.2,8.71-20,17.86-29.92,26.91a19.42,19.42,0,0,0-2.47,3.56l.09-.09Z" transform="translate(-380.47 -61.38)"/><path class="cls-5" d="M597,94.62l42.74,15c3.1,19.27,6.24,38.53,9.17,57.82.17,1.14-1.11,2.91-2.2,3.76-4.54,3.55-9.26,6.85-13.92,10.25L600,204.87q-31.68-10.6-63.35-21.25a9.78,9.78,0,0,1-2.35-1.68c-.33-2.46-.53-4.95-1-7.37q-4.78-23.59-9.66-47.15c.93-.68,1.87-1.38,2.81-2l49.49-35.19h4.13l7,1.4,4.39,1.22Z" transform="translate(-380.47 -61.38)"/><path class="cls-5" d="M682.75,320.42,674,330.83c-10.54,2.63-17.94,9.77-24.83,17.52-7.6,8.57-16.24,14-28.31,10.64a32.21,32.21,0,0,0-4.94-.6l-38-4.76-11.61-38.54,8.71-8.58-.09.09a12.39,12.39,0,0,0,2.57-1.39q18.84-17.06,37.61-34.17l60.65,2.35Q679.25,296.91,682.75,320.42Z" transform="translate(-380.47 -61.38)"/><path class="cls-5" d="M646.29,106.69c14.06-4.26,22.1-8.93,24.13-14.91,4.35,3.45,8.87,6.23,12.38,10,11.2,11.92,22.23,24,32.94,36.39,8.93,10.31,9.39,23.51,11.07,36.19.66,4.93,1.24,9.89,1.46,14.85.1,2.15-.8,4.34-1.25,6.51l-30.11,12.95-43.78-38.2c-.81-1.48-2.1-2.88-2.35-4.44-3.06-18.82-6-37.66-8.9-56.5l0-.07Z" transform="translate(-380.47 -61.38)"/><path class="cls-5" d="M460,308.45l-2.22-2.9-1.65-2.36a.45.45,0,0,0-.36-.64c-.52-.83-1-1.67-1.57-2.5-3.59-6.89-7.09-13.83-10.79-20.66-11.2-20.62-14.22-42.76-12.35-65.83,1.58-1.41,3.18-2.81,4.75-4.24l14.15-13,34.72,28.33a16.39,16.39,0,0,1,1.52,3.09q7.79,30.69,15.4,61.42c.34,1.35-.19,2.91-.32,4.38-5.71,6.89-11.36,13.83-17.17,20.63-1.42,1.65-3.41,2.82-5.14,4.21l-12.86-4.19-3.23-2.67Z" transform="translate(-380.47 -61.38)"/><path class="cls-5" d="M732.32,260.57c-4.71,11-9.52,21.93-14.1,33a29.24,29.24,0,0,1-15.9,16.35,21.76,21.76,0,0,0-3.6,2.51L694,314.84l-9.5,3.6c-2.58-15.45-5-30.2-7.5-45a245.47,245.47,0,0,0,20.87-63L727,196.84c.49,0,1.33-.12,1.42.08,4.12,9.33,12.39,17.14,10.14,28.82-1.72,8.9-2.94,17.9-4.38,26.85-.16.67-.31,1.34-.46,2l-.52,2c-.15.66-.3,1.33-.44,2S732.47,259.91,732.32,260.57Z" transform="translate(-380.47 -61.38)"/><path class="cls-5" d="M467.06,118.52c4.45-5,8.63-10.24,13.41-14.89,5.21-5.08,10.54-10.27,16.61-14.18,7.46-4.8,15.37-9.54,23.76-12.15,15.48-4.8,31.45-8,47.19-11.93,3.65-.91,5,.31,5.32,4.1.52,6.59,1.58,13.13,2.41,19.69-1.56.93-3.18,1.76-4.66,2.8Q547,108.78,523,125.65l-49.14,7.56a21.21,21.21,0,0,1-2.59-3.69C469.74,125.91,468.45,122.19,467.06,118.52Z" transform="translate(-380.47 -61.38)"/><path class="cls-2" d="M697.85,428.68l-1.26,12.69c-2.79,2.44-7.4,4.47-8.06,7.39-3.3,14.57-8.11,28.34-16.77,40.61L655.61,504.1c-4.75,2.46-.59,5.63-.68,8.46-6-.27-5.07-4.36-4.24-9.19-5.81.58-11.27,1.35-16.74,1.63-10.27.53-20.55.78-30.08-4.15,13.12.24,26.28-.06,39.34.94,7.45.56,11.88-3.45,16.44-7.65,12.81-11.81,19.79-26.86,23.13-43.71.29-1.46-1.11-4.56-2.16-4.78-15.35-3.15-30.77-5.95-47-9-1.62,4.66-4,11-5.92,17.47-.37,1.23.8,2.93,1.25,4.41l0-.05c-7.57-3.26-15.06-6.73-22.73-9.72-11.09-4.34-22.43-8-33.43-12.58-5.39-2.23-12.06-3.46-13.64-10.77,14.87,6.31,29.68,12.76,44.65,18.8,2.81,1.14,8.67,1.64,9,.79a31.68,31.68,0,0,0,2.46-13.29c-.31-5.34-2.41-10.55-3.27-15.89-.5-3.1,1.17-4.42,4.54-5.68s6.46-4.94,8.1-8.32c2-4.06,2.41-8.91,3.3-13.46,1.91-9.6,5.86-12.73,16.63-12.93q-2.7,19-5.41,38c-.41,2.7-.81,5.4-1.22,8.1l-8.82-7.4c-.32,1-1,3.13-1.71,5.28.41,7.2,5,11.17,11.22,13,11.88,3.49,23.86,6.8,36,9.25,4.79,1,10.23.05,15.12-1.09,5.85-1.37,6.9-7.35,2.24-11.85-1,1.74-2,3.42-3,5.1l-6.88-.53,0-.55c4-.27,5.44-2.65,6.09-6.46,3.27-19,3.36-19,14.75-30.8q-1.68,5.44-3.37,10.88C690.11,411,689.22,422.33,697.85,428.68ZM629,433.5l.35.25-.4-.2c-2.28-5.86-4.55-11.72-6.36-16.35l-4.45,4.25C620.69,426,620.54,433.44,629,433.5Zm1-24.2c1.34-1,3.6-1.76,3.86-3a126.62,126.62,0,0,0,1.63-12.79q1.13-8.1,2.24-16.18a253.19,253.19,0,0,0-10.44,30C627.22,407.7,629.08,408.64,630,409.3Zm-.93,29.32c-1.14-.84-2.36-2.17-3.85-2.66a3.4,3.4,0,0,0-3,1.54,43.54,43.54,0,0,0-3.08,9.41c-.22,1.28,1,3.44,2.21,4.13.88.5,3.63-.34,4-1.25C626.94,446.48,627.77,442.89,629.1,438.62Z" transform="translate(-380.47 -61.38)"/><path class="cls-5" d="M430.37,210.74c0-30.29,11.83-56.71,26.9-82,1.94-3.26,4.44-6.18,6.68-9.25,1,.86,2.51,1.52,2.94,2.61,1.62,4.09,2.9,8.32,4.31,12.5-10.7,18.85-19,38.63-23,60-2,2-4,4-6.07,5.89C438.23,203.94,434.28,207.32,430.37,210.74Z" transform="translate(-380.47 -61.38)"/><path class="cls-2" d="M577.93,353.63l38,4.76a32.21,32.21,0,0,1,4.94.6c12.07,3.38,20.71-2.07,28.31-10.64,6.89-7.75,14.29-14.89,24.83-17.52l-.06,2.52c-15.9,5.36-22.87,18-26.87,33-.46,1.75-1,3.48-1.54,5.22-2.1-.34-4.23-1.12-6.28-1-4.44.36-6.59-1.32-6.43-5.81-.09-.82,0-2.28-.28-2.35a52.52,52.52,0,0,0-7.25-1.33c-15.77-1.57-31.55-3.07-47.33-4.6Z" transform="translate(-380.47 -61.38)"/><path class="cls-5" d="M578,356.56c15.78,1.53,31.56,3,47.33,4.6a52.52,52.52,0,0,1,7.25,1.33c.27.07.19,1.53.28,2.35H552.3l-.19-1.57Z" transform="translate(-380.47 -61.38)"/><path class="cls-2" d="M558.15,422.5c-2.12-4.42-4.19-8.86-6.38-13.24-4.14-8.25-9.22-16.26-18-19.55-5.9-2.2-12.88-1.62-19.4-1.94-3.1-.16-6.23.47-9.35.74-.18-2.29-.36-4.57-.55-6.86,6.3.41,12.7.24,18.87,1.38,5.79,1.06,11.78,2.68,16.87,5.51,11.09,6.14,13.9,18.08,18.1,28.84C558.89,418.84,558.23,420.78,558.15,422.5Z" transform="translate(-380.47 -61.38)"/><path class="cls-2" d="M641.88,109.49c2.94,18.84,5.84,37.68,8.9,56.5.25,1.56,1.54,3,2.35,4.44-6,5.06-11.18,11.68-20.3,11,4.66-3.4,9.38-6.7,13.92-10.25,1.09-.85,2.37-2.62,2.2-3.76-2.93-19.29-6.07-38.55-9.17-57.82Z" transform="translate(-380.47 -61.38)"/><path class="cls-2" d="M523,125.65Q547,108.81,571.1,92c1.48-1,3.1-1.87,4.66-2.8,0,.34.11.68.17,1l-49.49,35.19c-.94.67-1.88,1.37-2.81,2Z" transform="translate(-380.47 -61.38)"/><path class="cls-5" d="M504.48,381.65c.19,2.29.37,4.57.55,6.86-1.94-.45-5.11-.36-5.59-1.45-2.46-5.55-4.23-11.4-6.24-17.14l2.28-2Z" transform="translate(-380.47 -61.38)"/><path class="cls-2" d="M501.29,293.58c.13-1.47.66-3,.32-4.38q-7.58-30.74-15.4-61.42a16.39,16.39,0,0,0-1.52-3.09l3.24-.16c2.27,10,4.45,20,6.84,29.94,3,12.57,6.23,25.1,9.36,37.65Z" transform="translate(-380.47 -61.38)"/><path class="cls-5" d="M478.91,319.64q5.07,7.91,10.16,15.8a5.69,5.69,0,0,0-.63.75l-19.53-18.64Z" transform="translate(-380.47 -61.38)"/><path class="cls-2" d="M727,196.84,697.88,210.5c-.32-.63-.65-1.25-1-1.87L727,195.68Z" transform="translate(-380.47 -61.38)"/><path class="cls-2" d="M430.37,210.74c3.91-3.42,7.86-6.8,11.72-10.26,2.1-1.88,4.05-3.92,6.07-5.89l1.81,1.77-14.15,13c-1.57,1.43-3.17,2.83-4.75,4.24C430.84,212.62,430.6,211.68,430.37,210.74Z" transform="translate(-380.47 -61.38)"/><path class="cls-2" d="M471.2,134.56c-1.41-4.18-2.69-8.41-4.31-12.5-.43-1.09-1.93-1.75-2.94-2.61l3.11-.93c1.39,3.67,2.68,7.39,4.21,11a21.21,21.21,0,0,0,2.59,3.69Z" transform="translate(-380.47 -61.38)"/><path class="cls-2" d="M478.91,319.64l-10-2.09.07.07-1-1.08-1.89-2.31L479,318.42C479,318.83,478.93,319.24,478.91,319.64Z" transform="translate(-380.47 -61.38)"/><path class="cls-2" d="M575,306.51l-8.71,8.58c-.1-.42-.21-.85-.31-1.27Z" transform="translate(-380.47 -61.38)"/><path class="cls-2" d="M587,91.58l-7-1.4Z" transform="translate(-380.47 -61.38)"/><path class="cls-2" d="M597,94.62l-5.61-1.82Z" transform="translate(-380.47 -61.38)"/><path class="cls-2" d="M646.29,106.69l-4.37,2.73Z" transform="translate(-380.47 -61.38)"/><path class="cls-2" d="M460,308.45l2.88,3.11Z" transform="translate(-380.47 -61.38)"/><path class="cls-2" d="M732.78,258.6c.14-.67.29-1.34.44-2C733.07,257.26,732.92,257.93,732.78,258.6Z" transform="translate(-380.47 -61.38)"/><path class="cls-2" d="M454.21,300.05c.53.83,1.05,1.67,1.57,2.5C455.26,301.72,454.74,300.88,454.21,300.05Z" transform="translate(-380.47 -61.38)"/><path class="cls-2" d="M456.14,303.19l1.65,2.36Z" transform="translate(-380.47 -61.38)"/><path class="cls-2" d="M560.9,313.17l2,.74Z" transform="translate(-380.47 -61.38)"/><path class="cls-2" d="M733.74,254.6c.15-.67.3-1.34.46-2C734,253.26,733.89,253.93,733.74,254.6Z" transform="translate(-380.47 -61.38)"/><path class="cls-5" d="M490.29,336c.12.52.23,1,0,.06-.13.93-.06.37,0-.18Z" transform="translate(-380.47 -61.38)"/><path class="cls-5" d="M468,316.54l1,1.08Z" transform="translate(-380.47 -61.38)"/><path class="cls-5" d="M490.33,335.92l-1.89.27a5.69,5.69,0,0,1,.63-.75c.4.21.8.42,1.21.61A1.12,1.12,0,0,0,490.33,335.92Z" transform="translate(-380.47 -61.38)"/><path class="cls-6" d="M447.77,423.45l-1.83,1.92-4.44,3.11a22.29,22.29,0,0,0-18.62-6.12c-1.09.12-2.94-1.85-3.62-3.26-3.49-7.18-7.31-13.65-16.89-12.86-.81.07-2.1-1-2.54-1.9-3.38-6.66-6.69-13.37-9.86-20.14-2.4-5.12-.79-9.16,4.06-11.73,12.05-6.38,24.17-12.62,36.27-18.89,3.24-1.68,6.39-3.83,9.85-4.7,1.9-.48,5.58.59,6.38,2.08,13.2,24.42,26.07,49,39,73.57a4.92,4.92,0,0,1,.15,1.38c-5.63,3.6-11.06,2.43-16.59-.67-3.9-2.19-7.8-4.82-12-5.77-2.38-.54-5.43,1.93-8.17,3l.08,0Zm-31.58-58.93c-5.55-.06-11,4.12-11.05,8.53-.13,6.77,4.79,12.41,10.84,12.42,5.24,0,10.92-4.71,10.86-9C426.73,369.43,422.41,364.59,416.19,364.52Z" transform="translate(-380.47 -61.38)"/><path class="cls-3" d="M422,430.59c-.37-4,1.68-5.24,5.41-5.16,6.91.15,15.45,6.88,16.37,13.74a12.84,12.84,0,0,1-1.52,7.41c-3.57,6.48-8,12.49-11.36,19.06-3.22,6.27-5,7.15-11,3.29-8.67-5.55-12.14-12.31-8.91-19.29,1.21-2.62,3.3-6.36,7.8-5l.23.17L419,445c3.3,4.27,11.35,5.16,14.48,1.16.9-1.16-.19-3.88-.37-5.88Z" transform="translate(-380.47 -61.38)"/><path class="cls-3" d="M448.35,456.1,443,451.73c5.83-2.25,14,1.81,14.68,7.9.86,8.28,2,16.86-5.05,23.82-4.14,4.08-9.37,5.45-14.51,2.5s-8-9.42-5.48-14.48c1.55-3.07,4.65-5.36,7.05-8l1.16,1c1.4.83,3.1,2.62,4.15,2.3,2.85-.88,5.43-2.65,8.11-4.07l-2.28-4.14.08,0-1.27-2.09Z" transform="translate(-380.47 -61.38)"/><path class="cls-3" d="M406.1,413.53c-.22-3.24,1.07-3.49,3.45-1.8,8.72,6.15,10,12.92,4.23,22.09-2.54,4-5,8.11-6.27,12.23q-.78,4.23-1.54,8.45l-1.9.93c-4.22-4.41-9.75-8.18-12.34-13.4-3.15-6.35.64-11.71,7.53-14.5,4.09,2.69,8.84,5.19,13.21-.18,2.64-3.25,1.24-6.2-2-8.35Q408.27,416.26,406.1,413.53Z" transform="translate(-380.47 -61.38)"/><path class="cls-5" d="M419,445l.11-.27-.23-.17c-2.86-8.3-2.11-11.6,3.2-14l11,9.73C430.2,447.41,424.18,445,419,445Z" transform="translate(-380.47 -61.38)"/><path class="cls-5" d="M406.1,413.53q2.17,2.73,4.33,5.47c.13,7.32-1.86,9.52-7.09,7-1.57-.76-2.75-4.61-2.29-6.64C401.56,417.07,400.12,411.55,406.1,413.53Z" transform="translate(-380.47 -61.38)"/><path class="cls-5" d="M448.35,456.1l1.3.42,1.27,2.09-.08,0c.11,7.79-6,5-10,5.91l-1.16-1c-.63-2.62-1.27-5.23-2.11-8.67Z" transform="translate(-380.47 -61.38)"/><path class="cls-7" d="M665.34,546.4l1.74-5.76,6-7,.66-.59-1.07.19c-1.6,0-4.16,2.38-4.22-1.64l-1.59.9-3.6-7.33a39.37,39.37,0,0,1,5.81-1.57c7-.81,14-1.43,21-2.12,1.71,9,10.58,10.61,16.43,15.44l-12.94,22.33L691,561.67c-8.82-.31-17.64-.65-26.46-.91-3.67-.11-4.19-1.76-2.83-4.86S664.14,549.57,665.34,546.4Z" transform="translate(-380.47 -61.38)"/><path class="cls-8" d="M654.93,512.56c.09-2.83-4.07-6,.68-8.46,3.53,8.11,10.48,3.63,15.24,3.09C691.21,504.86,711.27,504,731,511c4,1.44,8.27,2.94,12.44,3a34.82,34.82,0,0,0,13.27-2.6c5.34-2.18,12.75-.69,15.44-8,3.78,5.53-2.18,7-4.22,10.06-8.28,6.51-17.38,7-27.36,4.68-8.69-2.07-17.65-4.24-26.48-4.2-16.72.07-33.43,1.68-50.14,2.65Z" transform="translate(-380.47 -61.38)"/><path class="cls-6" d="M764.91,525.63c.71,11.12,1.56,22.23,2,33.37,0,1.1-2.66,3.28-4.11,3.29-5.9.07-11.81-.51-17.72-.85.43-1.17.57-2.6,1.34-3.47,4-4.54,8.49-8.68,12-13.53,1.31-1.8.49-5.16.64-7.81l-2.77.15c-5.21-3.39-10.09-7.45-15.66-10.06-14.66-6.84-30.47-6.48-46.19-6.13,1.63-1,3.2-2.8,4.92-3a73.63,73.63,0,0,1,29.9,3.27c4.77,1.55,10.23.91,15.33,1.57C751.37,523.36,758.13,524.56,764.91,525.63Z" transform="translate(-380.47 -61.38)"/><path class="cls-2" d="M764.91,525.63c-6.78-1.07-13.54-2.27-20.35-3.16-5.1-.66-10.56,0-15.33-1.57a73.63,73.63,0,0,0-29.9-3.27c-1.72.16-3.29,1.93-4.92,3,3.33,3.86,6.19,8.3,10.09,11.46,7.17,5.83,7.42,5.52,2,13.13q-4.75,6.66-9.47,13.35l-1.87,1-1.6-.3,12.94-22.34c-5.85-4.83-14.72-6.47-16.44-15.44-1.39-.7-2.77-2-4.19-2-8-.31-16-.33-24-.45l2-2.45c16.71-1,33.42-2.58,50.14-2.65,8.83,0,17.79,2.13,26.48,4.2,10,2.36,19.08,1.83,27.36-4.68Q766.42,519.53,764.91,525.63Z" transform="translate(-380.47 -61.38)"/><path class="cls-2" d="M543,493.57l14.16-10c2.89,2.46,4.73,4.86,7.16,5.94,8.11,3.59,16.44,6.71,24.68,10l3.07,5.79c-2.21.34-5,1.21-7.74,1.1-12.25-.49-24.49-1.2-36.73-2-4.33-.27-4.31-1.61.3-8.09Zm44.73,8.77c-10.57-4.5-19.68-8.46-28.87-12.21-1.06-.43-3.22-.13-3.83.64-2.49,3.16-4.59,6.64-7.88,11.57Z" transform="translate(-380.47 -61.38)"/><path class="cls-2" d="M665.34,546.4c-1.2,3.17-2.28,6.4-3.65,9.5s-.84,4.75,2.83,4.86c8.82.26,17.64.6,26.46.91-2,1-3.85,2-5.87,2.82-.86.34-2.07-.22-3,.11-5.6,2-11,3.14-16.82.13-1.3-.67-3.85,1.37-5.89,1.74-1.3.23-3.51.15-4-.62C652.61,561.31,659.79,547.46,665.34,546.4Z" transform="translate(-380.47 -61.38)"/><path class="cls-6" d="M737,557.4c-3.93.28-7.94.33-10.9,3.59l-2.11-1.5c2.41-5.92,6.49-10.1,13.15-13.32-.55,2.58-.85,4-1.15,5.35l-1,2-.24.37c.08-.13.15-.26.22-.39l1-2a25.37,25.37,0,0,0,4.34-1.94c4.89-3.3,9.68-6.75,14.51-10.15Z" transform="translate(-380.47 -61.38)"/><path class="cls-2" d="M737,557.4l17.88-17.94c.47-.89.95-1.78,1.42-2.68l2.77-.15c-.15,2.65.67,6-.64,7.81-3.53,4.85-8,9-12,13.53-.77.87-.91,2.3-1.34,3.47Z" transform="translate(-380.47 -61.38)"/><path class="cls-2" d="M673.1,533.65l-6,7c-.23-.23-.42-.59-.7-.68-2.72-.92-7.24-1.15-7.85-2.82-1.72-4.7-2-10-2.4-15-.06-.77,2.16-1.73,3.32-2.6,1.33,5.34,2.65,10.68,4.22,17l3.21-4,1.59-.9c.06,4,2.62,1.59,4.22,1.64Z" transform="translate(-380.47 -61.38)"/><path class="cls-2" d="M677,273.48c2.46,14.76,4.92,29.51,7.5,45l9.5-3.6-11.26,5.58q-3.5-23.52-7-47Z" transform="translate(-380.47 -61.38)"/><path class="cls-6" d="M666.88,532.51l-3.21,4c-1.57-6.32-2.89-11.66-4.22-17l2.48-.47c8,.12,16,.14,24,.45,1.42,0,2.8,1.32,4.19,2-7,.69-14,1.31-21,2.12a39.37,39.37,0,0,0-5.81,1.57Z" transform="translate(-380.47 -61.38)"/><path class="cls-2" d="M724,559.49l2.11,1.5c-1.67,1.16-3.29,3.26-5,3.34-8.08.37-16.18.26-24.27.08-.61,0-1.18-1.91-1.77-2.93,3.13,0,6.27.26,9.38,0,5.64-.42,11.26-1.12,16.89-1.71Z" transform="translate(-380.47 -61.38)"/><path class="cls-2" d="M503.93,497.14c3.62-.21,7.25-.38,10.87-.63q12.63-.86,25.25-1.76c-1.19,1.24-2.36,3.52-3.57,3.54-10.52.2-21,0-31.56-.12C504.58,498.16,504.26,497.5,503.93,497.14Z" transform="translate(-380.47 -61.38)"/><path class="cls-6" d="M721.28,559.79c-5.63.59-11.25,1.29-16.89,1.71-3.11.24-6.25,0-9.38,0,0-.64.11-1.28.16-1.91l1.87-1Z" transform="translate(-380.47 -61.38)"/><path class="cls-2" d="M601.58,509.24H586.12v-.49h15.62Z" transform="translate(-380.47 -61.38)"/><path class="cls-2" d="M578.86,509.24H564.32v-.37h14.55Z" transform="translate(-380.47 -61.38)"/><path class="cls-2" d="M509.84,404.41c.61-.93,1.21-1.87,1.82-2.81l1.15,1.06L510,404.58Z" transform="translate(-380.47 -61.38)"/><path class="cls-2" d="M507.86,400.44l1-2.05.34.33L508,400.56Z" transform="translate(-380.47 -61.38)"/><path class="cls-2" d="M628.94,458.55l.34.19-.29-.24Z" transform="translate(-380.47 -61.38)"/><path class="cls-2" d="M508.84,398.39l.67-.38-.33.71Z" transform="translate(-380.47 -61.38)"/><path class="cls-2" d="M447.77,423.45l1.2-1Z" transform="translate(-380.47 -61.38)"/><path class="cls-8" d="M638,421.56c.41-2.7.81-5.4,1.22-8.1,4.85,1.5,9.74,2.88,14.54,4.53,14.39,4.94,21.68,2.77,30.81-9.85,2.28-3.16,3.63-7,5.58-10.39a29.87,29.87,0,0,1,3.41-4l2.65,5.11,9.7-18.1c2.47,5.43,2.7,10.13-2,13.81l-.9,1,0-.08c-11.39,11.79-11.48,11.78-14.75,30.8-.65,3.81-2.05,6.19-6.09,6.46l-5,.69c-2.62-.3-5.26-.45-7.85-.94-10.61-2-21.83-2.24-30.51-10.1l-.85-.88Z" transform="translate(-380.47 -61.38)"/><path class="cls-8" d="M671.76,489.37c8.66-12.27,13.47-26,16.77-40.61.66-2.92,5.27-4.95,8.06-7.39,3.07,2.27,2.72,4.75-.5,6-5.89,2.22-6.29,6.37-6.74,12-.77,9.36-3.65,18.5-10.42,25.57C677.08,486.8,677.25,493,671.76,489.37Z" transform="translate(-380.47 -61.38)"/><path class="cls-8" d="M697.85,428.68c-8.63-6.35-7.74-17.71,1.75-22.31Q698.73,417.53,697.85,428.68Z" transform="translate(-380.47 -61.38)"/><path class="cls-2" d="M691.81,502.18h-5.59l-.09-1.42c14.69-.18,29.47-1.35,43.63,4.13l.12.28-36.76-2.93Z" transform="translate(-380.47 -61.38)"/><path class="cls-3" d="M686.13,500.75l.09,1.42c-3.13.12-6.25.28-9.38.35-.77,0-1.54-.23-2.36-1.77Z" transform="translate(-380.47 -61.38)"/><path class="cls-3" d="M729.88,505.16l-.12-.28,5.15.84-.28,1.06Z" transform="translate(-380.47 -61.38)"/><path class="cls-3" d="M691.81,502.18l1.31.05Z" transform="translate(-380.47 -61.38)"/><path class="cls-2" d="M702.94,395.57l.9-1Z" transform="translate(-380.47 -61.38)"/><path class="cls-1" d="M677,273.48l-1.24-.09L615.12,271q-1.33-4.29-2.66-8.56c-.13-.67-.25-1.33-.37-2l-.48-2-.51-2c-.14-.68-.29-1.35-.44-2l-11.64-48,1-1.64,32.82-23.41c9.12.65,14.29-6,20.3-11l43.78,38.2c.32.62.65,1.24,1,1.87A245.47,245.47,0,0,1,677,273.48Z" transform="translate(-380.47 -61.38)"/><path class="cls-1" d="M471.2,134.56l2.66-1.35L523,125.65l.63,1.77q4.83,23.58,9.66,47.15c.49,2.42.69,4.91,1,7.37l-1.29,3L512.87,200.5,501,211.56l-2,2L496,216.51l-8,8-3.24.16L450,196.36l-1.81-1.77C452.22,173.19,460.5,153.41,471.2,134.56Z" transform="translate(-380.47 -61.38)"/><path class="cls-2" d="M533,184.92l1.29-3a9.78,9.78,0,0,0,2.35,1.68Q568.33,194.3,600,204.87l-1,1.64q-30.13-10.14-60.27-20.24C536.89,185.65,534.93,185.36,533,184.92Z" transform="translate(-380.47 -61.38)"/><path class="cls-2" d="M612.46,262.48q1.32,4.27,2.66,8.56-18.79,17.1-37.61,34.17a12.39,12.39,0,0,1-2.57,1.39,19.42,19.42,0,0,1,2.47-3.56c9.91-9.05,19.72-18.2,29.92-26.91C611.79,272.31,614.87,268.59,612.46,262.48Z" transform="translate(-380.47 -61.38)"/><path class="cls-2" d="M501,211.56l11.88-11.06Z" transform="translate(-380.47 -61.38)"/><path class="cls-2" d="M496,216.51l3.06-2.94Z" transform="translate(-380.47 -61.38)"/><path class="cls-2" d="M610.66,254.46c.15.68.3,1.35.44,2C611,255.81,610.81,255.14,610.66,254.46Z" transform="translate(-380.47 -61.38)"/><path class="cls-2" d="M611.61,258.46l.48,2Z" transform="translate(-380.47 -61.38)"/><path class="cls-8" d="M689,433.83c1-1.68,2-3.36,3-5.1,4.66,4.5,3.61,10.48-2.24,11.85-4.89,1.14-10.33,2.06-15.12,1.09-12.12-2.45-24.1-5.76-36-9.25-6.19-1.81-10.81-5.78-11.22-13,1.78,1.45,3.38,3.22,5.36,4.31,7.32,4,14.39,9.54,22.27,11.3,9.69,2.16,20.1,1.23,30.2,1.35C686.5,436.42,687.75,434.73,689,433.83Z" transform="translate(-380.47 -61.38)"/><path class="cls-4" d="M689,433.83c-1.23.9-2.48,2.59-3.7,2.57-10.1-.12-20.51.81-30.2-1.35-7.88-1.76-15-7.27-22.27-11.3-2-1.09-3.58-2.86-5.36-4.31.7-2.15,1.39-4.31,1.71-5.28l8.82,7.4-.06,0,.85.88c8.68,7.86,19.9,8.09,30.51,10.1,2.59.49,5.23.64,7.85.94l5-.14Z" transform="translate(-380.47 -61.38)"/><path class="cls-3" d="M629.1,438.62c-1.33,4.27-2.16,7.86-3.64,11.17-.41.91-3.16,1.75-4,1.25-1.19-.69-2.43-2.85-2.21-4.13a43.54,43.54,0,0,1,3.08-9.41,3.4,3.4,0,0,1,3-1.54C626.74,436.45,628,437.78,629.1,438.62Z" transform="translate(-380.47 -61.38)"/><path class="cls-3" d="M630,409.3c-.95-.66-2.81-1.6-2.71-1.95a253.19,253.19,0,0,1,10.44-30q-1.12,8.08-2.24,16.18Z" transform="translate(-380.47 -61.38)"/><path class="cls-3" d="M629,433.5c-8.45-.06-8.3-7.52-10.86-12.05l4.45-4.25c1.81,4.63,4.08,10.49,6.36,16.35Z" transform="translate(-380.47 -61.38)"/><path class="cls-8" d="M630,409.3l5.49-15.77a126.62,126.62,0,0,1-1.63,12.79C633.63,407.54,631.37,408.32,630,409.3Z" transform="translate(-380.47 -61.38)"/><path class="cls-3" d="M682.1,433.3l-5,.14,5-.69Z" transform="translate(-380.47 -61.38)"/><path class="cls-3" d="M628.94,433.55l.4.2-.35-.25Z" transform="translate(-380.47 -61.38)"/><path class="cls-2" d="M416.19,364.52c6.22.07,10.54,4.91,10.65,11.93.06,4.31-5.62,9-10.86,9-6.05,0-11-5.65-10.84-12.42C405.22,368.64,410.64,364.46,416.19,364.52Z" transform="translate(-380.47 -61.38)"/><path class="cls-2" d="M419,445c5.23,0,11.25,2.37,14.11-4.72.18,2,1.27,4.72.37,5.88C430.3,450.2,422.25,449.31,419,445Z" transform="translate(-380.47 -61.38)"/><path class="cls-2" d="M440.86,464.5c3.95-.92,10.09,1.88,10-5.91l2.28,4.14c-2.68,1.42-5.26,3.19-8.11,4.07C444,467.12,442.26,465.33,440.86,464.5Z" transform="translate(-380.47 -61.38)"/><path class="cls-2" d="M450.92,458.61l-1.27-2.09Z" transform="translate(-380.47 -61.38)"/><path class="cls-2" d="M672.69,533.25l1.07-.19-.66.59Z" transform="translate(-380.47 -61.38)"/><path class="cls-7" d="M721.28,559.79,697,558.53q4.73-6.67,9.47-13.35c5.41-7.61,5.16-7.3-2-13.13-3.9-3.16-6.76-7.6-10.09-11.46,15.72-.35,31.53-.71,46.19,6.13,5.57,2.61,10.45,6.67,15.66,10.06-.47.9-1,1.79-1.42,2.68-4.83,3.4-9.62,6.85-14.51,10.15a25.37,25.37,0,0,1-4.34,1.94l0,0c.3-1.39.6-2.77,1.15-5.35-6.66,3.22-10.74,7.4-13.15,13.32Z" transform="translate(-380.47 -61.38)"/><path class="cls-3" d="M587.7,502.34H547.12c3.29-4.93,5.39-8.41,7.88-11.57.61-.77,2.77-1.07,3.83-.64C568,493.88,577.13,497.84,587.7,502.34Z" transform="translate(-380.47 -61.38)"/><path class="cls-7" d="M735,553.54l1-2,0,0-1,2Z" transform="translate(-380.47 -61.38)"/><path class="cls-7" d="M735,553.52c-.07.13-.14.26-.22.39l.24-.37Z" transform="translate(-380.47 -61.38)"/><path class="cls-2" d="M638.77,422.4l-.85-.88Z" transform="translate(-380.47 -61.38)"/></svg>